<svg viewBox="0 0 16 16" xmlns="http://www.w3.org/2000/svg">
  <path
    fill-rule="evenodd"
    clip-rule="evenodd"
    d="M16 8C16 12.4183 12.4183 16 8 16C3.58172 16 3.13122e-07 12.4183 6.9938e-07 8C2.03931e-06 3.58172 3.58172 -1.08564e-06 8 2.54292e-07C12.4183 6.4055e-07 16 3.58172 16 8ZM8 7C8.55229 7 9 7.44771 9 8L9 11C9 11.5523 8.55229 12 8 12C7.44772 12 7 11.5523 7 11L7 8C7 7.44771 7.44772 7 8 7ZM8 6C8.55229 6 9 5.55228 9 5C9 4.44771 8.55229 4 8 4C7.44772 4 7 4.44771 7 5C7 5.55228 7.44772 6 8 6Z"
  />
</svg>
