<svg viewBox="0 0 12 13" xmlns="http://www.w3.org/2000/svg">
  <path
    fill-rule="evenodd"
    clip-rule="evenodd"
    d="M1.7574 0.656785C1.36688 0.266261 0.73371 0.266261 0.343186 0.656785C-0.0473381 1.04731 -0.0473381 1.68047 0.343186 2.071L4.58583 6.31365L0.343198 10.5563C-0.0473264 10.9468 -0.0473264 11.58 0.343198 11.9705C0.733722 12.361 1.36689 12.361 1.75741 11.9705L6.00005 7.72786L10.2427 11.9705C10.6332 12.361 11.2664 12.361 11.6569 11.9705C12.0474 11.58 12.0474 10.9468 11.6569 10.5563L7.41426 6.31365L11.6569 2.071C12.0474 1.68048 12.0474 1.04731 11.6569 0.656786C11.2664 0.266262 10.6332 0.266262 10.2427 0.656786L6.00005 4.89943L1.7574 0.656785Z"
  />
</svg>
